<svg class="section-deco section-deco-1" xmlns="http://www.w3.org/2000/svg" viewBox="0 0 1599 241" fill="none">
  <path fill-rule="evenodd" clip-rule="evenodd"
    d="M538.598 39.5C529.708 16.0267 507.225 0.5 482.124 0.5H218.052C193.004 0.5 170.586 16.0433 161.802 39.5C153.018 62.9567 130.6 78.5 105.552 78.5H-100C-103.714 78.5 -105.571 78.5 -107.141 78.5641C-147.2 80.1994 -179.301 112.3 -180.936 152.359C-181 153.929 -181 155.786 -181 159.5C-181 163.214 -181 165.071 -180.936 166.641C-179.301 206.7 -147.2 238.801 -107.141 240.436C-105.571 240.5 -103.714 240.5 -100 240.5H1688C1691.71 240.5 1693.57 240.5 1695.14 240.436C1735.2 238.801 1767.3 206.7 1768.94 166.641C1769 165.071 1769 163.214 1769 159.5C1769 155.786 1769 153.929 1768.94 152.359C1767.3 112.3 1735.2 80.1994 1695.14 78.5641C1693.57 78.5 1691.71 78.5 1688 78.5H595.072C569.972 78.5 547.489 62.9733 538.598 39.5Z"
    fill="#F1F5F8"></path>
</svg>