<svg width="16" height="16" viewBox="0 0 16 16" fill="none" xmlns="http://www.w3.org/2000/svg">
<path d="M9.73182 16.0014H3.97151C1.78192 16.0014 0 14.2097 0 12.0081V6.21603C0 4.0134 1.78192 2.22266 3.97151 2.22266H9.73182C11.9214 2.22266 13.7033 4.01439 13.7033 6.21603V12.0081C13.7033 14.2097 11.9214 16.0014 9.73182 16.0014ZM3.97151 3.65486C2.5668 3.65486 1.42436 4.80358 1.42436 6.21603V12.0081C1.42436 13.4195 2.5668 14.5692 3.97151 14.5692H9.73182C11.1365 14.5692 12.279 13.4205 12.279 12.0081V6.21603C12.279 4.80358 11.1365 3.65486 9.73182 3.65486H3.97151Z" fill="white"/>
<path d="M6.47643 9.74372L1.16602 4.39914L2.17387 3.38672L6.52456 7.76531C6.70825 7.95001 7.00491 7.951 7.19057 7.76728L11.5835 3.40746L12.5845 4.42679L7.22495 9.74669C7.01768 9.95213 6.68369 9.95114 6.47839 9.74372" fill="white"/>
<path d="M15.9986 3.57063C15.9986 5.54312 14.4083 7.14126 12.4476 7.14126C10.4869 7.14126 8.89648 5.54213 8.89648 3.57063C8.89648 1.59913 10.4859 0 12.4466 0C14.4073 0 15.9977 1.59913 15.9977 3.57063" fill="#EC1B2E"/>
</svg>
