<svg width="13" height="16" viewBox="0 0 13 16" fill="none" xmlns="http://www.w3.org/2000/svg">
<g opacity="0.9" clip-path="url(#clip0_468_916)">
<path d="M6.71686 15.2757C6.59636 15.3934 6.40319 15.3934 6.28174 15.2757L1.54708 10.6689L1.56429 10.6499C1.14734 10.1687 0.805941 9.63059 0.546782 9.04596C0.204425 8.27152 0.0208151 7.44962 0.001689 6.60114C-0.0748153 3.27274 2.45652 0.389443 5.79211 0.0373361C9.69192 -0.373614 12.9988 2.66248 12.9988 6.45119C12.9988 7.35281 12.8143 8.22596 12.4518 9.04596C12.1917 9.63249 11.8503 10.1706 11.4314 10.6537L11.4467 10.6708L10.9772 11.132L6.71686 15.2776V15.2757ZM3.46734 10.6091L6.30756 13.3728C6.41371 13.4762 6.58489 13.4762 6.69104 13.3728L9.53413 10.6062L9.52648 10.5977L10.0132 10.1374C11.0719 9.14372 11.6418 7.79128 11.6112 6.3411C11.5567 3.72829 9.45954 1.55301 6.83161 1.38787C3.78579 1.19616 1.25923 3.66755 1.39216 6.67897C1.45145 8.02001 2.07018 9.27754 3.0523 10.2L3.47785 10.5996L3.46734 10.611V10.6091Z" fill="white"/>
<path d="M9.96486 6.59497C9.96486 8.49028 8.4166 10.0259 6.50782 10.0259C4.59904 10.0259 3.05078 8.48933 3.05078 6.59497C3.05078 4.70062 4.59904 3.16406 6.50782 3.16406C8.4166 3.16406 9.96486 4.70062 9.96486 6.59497Z" fill="#EC1B2E"/>
</g>
<defs>
<clipPath id="clip0_468_916">
<rect width="13" height="15.3636" fill="white"/>
</clipPath>
</defs>
</svg>
