<svg viewBox="0 0 221 118" fill="currentColor" xmlns="http://www.w3.org/2000/svg" class="w-20">
    <g clip-path="url(#clip0_308_379)">
        <path d="M124.883 78.8616H115.962V116.789H124.883V78.8616Z" fill="currentColor" />
        <path
            d="M143.218 95.5411C142.548 95.5453 141.903 95.2834 141.425 94.8128C140.947 94.3422 140.676 93.7012 140.669 93.0305V83.4994C140.764 79.9499 146.043 79.942 146.137 83.4994V90.7953H150.771V85.7818C150.369 76.1564 136.437 76.1564 136.036 85.7818V94.6596C136.031 95.3415 136.215 96.0113 136.568 96.5948C136.921 97.1783 137.428 97.6526 138.034 97.9652C137.402 98.256 136.874 98.7311 136.517 99.3281C136.16 99.925 135.993 100.616 136.036 101.31V110.086C136.437 119.719 150.377 119.719 150.771 110.086V100.13H153.917V95.5411H143.218ZM143.407 115.052C142.687 115.056 141.994 114.774 141.48 114.268C140.967 113.762 140.676 113.073 140.669 112.352V102.64C140.672 102.307 140.741 101.978 140.871 101.672C141.001 101.366 141.191 101.088 141.428 100.855C141.665 100.622 141.946 100.438 142.255 100.313C142.563 100.189 142.893 100.126 143.226 100.13H146.137V112.36C146.131 113.079 145.84 113.766 145.328 114.27C144.816 114.775 144.126 115.056 143.407 115.052Z"
            fill="currentColor" />
        <path
            d="M9.30805 116.789C9.30805 99.9937 8.21454 77.1618 16.2074 63.8451C17.1672 62.1451 18.5675 62.1766 19.5588 63.8923C26.2457 75.6034 26.7649 94.7914 26.3952 116.789H35.6783V100.812C35.6783 78.7752 26.6391 67.253 21.4075 62.4127C20.4659 61.5245 19.2234 61.0253 17.9293 61.0151C16.6352 61.0048 15.385 61.4844 14.4295 62.3576C-0.722387 76.5243 -0.0300845 98.034 0.0171175 116.789H9.30805Z"
            fill="currentColor" />
        <path
            d="M56.2071 116.793V90.5613C56.2071 86.1697 59.5505 82.6123 63.6807 82.6123C67.8109 82.6123 71.1308 86.1618 71.1308 90.5456V116.793H80.5161V90.5613C80.5161 86.1697 83.8596 82.6123 87.9819 82.6123C92.1042 82.6123 95.4398 86.1618 95.4398 90.5456V116.793H104.817V96.4641C104.896 80.6447 86.4007 72.3493 75.8195 84.0919C65.2463 72.3493 46.7509 80.6525 46.8375 96.4641V116.793H56.2071Z"
            fill="currentColor" />
        <path
            d="M172.371 116.791V72.9132C172.371 70.9302 173.158 69.0285 174.56 67.6263C175.961 66.2241 177.862 65.4364 179.844 65.4364C181.827 65.4364 183.728 66.2241 185.129 67.6263C186.531 69.0285 187.318 70.9302 187.318 72.9132V116.806H196.703V72.9132C196.703 70.9302 197.491 69.0285 198.892 67.6263C200.294 66.2241 202.195 65.4364 204.177 65.4364C206.159 65.4364 208.06 66.2241 209.462 67.6263C210.863 69.0285 211.651 70.9302 211.651 72.9132V116.806H221.028V78.7688C221.107 63.0831 202.612 54.8586 192.038 66.4989C181.457 54.8507 162.97 63.0831 163.048 78.7688V116.791H172.371Z"
            fill="currentColor" />
        <path
            d="M17.8449 92.2543C19.6915 92.2543 21.1884 90.7567 21.1884 88.9094C21.1884 87.062 19.6915 85.5645 17.8449 85.5645C15.9984 85.5645 14.5015 87.062 14.5015 88.9094C14.5015 90.7567 15.9984 92.2543 17.8449 92.2543Z"
            fill="#8DC63F" />
        <path
            d="M120.39 72.1751C123.47 72.1751 125.968 69.6768 125.968 66.595C125.968 63.5132 123.47 61.0149 120.39 61.0149C117.309 61.0149 114.812 63.5132 114.812 66.595C114.812 69.6768 117.309 72.1751 120.39 72.1751Z"
            fill="#5056A5" />
        <path
            d="M133.012 47.5913C136.705 47.5913 139.699 44.5962 139.699 40.9015C139.699 37.2068 136.705 34.2117 133.012 34.2117C129.319 34.2117 126.325 37.2068 126.325 40.9015C126.325 44.5962 129.319 47.5913 133.012 47.5913Z"
            fill="#996598" />
        <path
            d="M157.853 27.6032C162.163 27.6032 165.657 24.1077 165.657 19.7958C165.657 15.4839 162.163 11.9884 157.853 11.9884C153.543 11.9884 150.049 15.4839 150.049 19.7958C150.049 24.1077 153.543 27.6032 157.853 27.6032Z"
            fill="#D24D70" />
        <path
            d="M192.065 17.8541C196.993 17.8541 200.987 13.8583 200.987 8.92915C200.987 4.00001 196.993 0.00415039 192.065 0.00415039C187.138 0.00415039 183.144 4.00001 183.144 8.92915C183.144 13.8583 187.138 17.8541 192.065 17.8541Z"
            fill="#ED1B2F" />
        <path
            d="M32.7095 63.8989C34.6604 63.8989 36.2418 62.3168 36.2418 60.3651C36.2418 58.4134 34.6604 56.8313 32.7095 56.8313C30.7587 56.8313 29.1772 58.4134 29.1772 60.3651C29.1772 62.3168 30.7587 63.8989 32.7095 63.8989Z"
            fill="#35AA94" />
        <path
            d="M52.9347 50.2597C55.0898 50.2597 56.8368 48.5119 56.8368 46.356C56.8368 44.2 55.0898 42.4523 52.9347 42.4523C50.7797 42.4523 49.0327 44.2 49.0327 46.356C49.0327 48.5119 50.7797 50.2597 52.9347 50.2597Z"
            fill="#1EA0CA" />
        <path
            d="M77.3664 46.4196C79.8299 46.4196 81.827 44.4217 81.827 41.9571C81.827 39.4926 79.8299 37.4946 77.3664 37.4946C74.9028 37.4946 72.9058 39.4926 72.9058 41.9571C72.9058 44.4217 74.9028 46.4196 77.3664 46.4196Z"
            fill="#0088CB" />
        <path
            d="M102.039 53.4702C104.811 53.4702 107.058 51.2221 107.058 48.4489C107.058 45.6757 104.811 43.4276 102.039 43.4276C99.2667 43.4276 97.0195 45.6757 97.0195 48.4489C97.0195 51.2221 99.2667 53.4702 102.039 53.4702Z"
            fill="#3777BC" />
    </g>
    <defs>
        <clipPath id="clip0_308_379">
            <rect width="221" height="117.3" fill="#191868" />
        </clipPath>
    </defs>
</svg>