<svg width="15" height="16" viewBox="0 0 15 16" fill="none" xmlns="http://www.w3.org/2000/svg">
<path d="M15 4C15 6.20968 13.2086 8 11 8C8.79142 8 7 6.20858 7 4C7 1.79142 8.79142 0 11 0C13.2086 0 15 1.79142 15 4Z" fill="#EC1B2E"/>
<path d="M9.89704 15.1914C9.54991 15.1914 9.19408 15.1718 8.83063 15.1316C6.53351 14.8791 4.41376 13.8845 2.86094 12.3295C1.30812 10.7756 0.313536 8.65482 0.0599929 6.35771C-0.168522 4.28367 0.265658 2.41856 1.19387 1.48601C1.60193 1.07142 1.73469 0.93866 2.13731 0.54148C2.55843 0.126891 3.43876 0.0322205 3.95999 0.522982L5.50192 1.89624C5.87516 2.22813 6.09715 2.70475 6.1113 3.20421C6.12653 3.70368 5.93175 4.19226 5.57918 4.54592L4.91975 5.20643C4.47578 5.6504 4.62051 6.83215 6.4878 8.70052C7.31263 9.52535 8.09938 10.0977 8.76425 10.3545C9.55317 10.6592 9.85024 10.397 9.96777 10.2805L10.4596 9.74624C10.7893 9.38824 11.2387 9.18258 11.7252 9.16625C12.2116 9.15102 12.673 9.3273 13.0255 9.66354L14.6425 11.2098C15.1192 11.7049 15.1192 12.5483 14.6425 13.0521C14.401 13.3078 14.0865 13.6223 13.7078 13.9879C12.9352 14.7561 11.5293 15.1881 9.89704 15.1881M3.0666 1.84401C2.79782 2.10952 2.65201 2.25642 2.31686 2.59702L2.3125 2.60137C1.84459 3.07037 1.43 4.3914 1.62804 6.18687C1.75209 7.31203 2.22219 9.46115 3.97631 11.2164C5.73044 12.9716 7.87848 13.4416 9.00256 13.5646C10.2616 13.7028 11.9232 13.545 12.5957 12.8714L12.6055 12.8617C12.8873 12.5907 13.13 12.3502 13.3302 12.1446L11.933 10.8105C11.8775 10.7582 11.8166 10.7484 11.7741 10.7495C11.7317 10.7506 11.6707 10.7648 11.6196 10.8203L11.094 11.3905C10.1147 12.3698 8.85783 12.0869 8.19514 11.8323C7.31372 11.4917 6.36375 10.8159 5.37026 9.82133C4.37676 8.82675 3.70101 7.87569 3.36041 6.99428C3.10469 6.33159 2.82285 5.07476 3.80221 4.09542L4.46163 3.4349C4.52692 3.36961 4.53454 3.29453 4.53345 3.25536C4.53237 3.21618 4.5204 3.1411 4.45184 3.08016L3.06552 1.84619L3.0666 1.84401Z" fill="white"/>
</svg>
