<svg width="837" height="644" viewBox="0 0 837 644" fill="none" xmlns="http://www.w3.org/2000/svg">
<path opacity="0.2" d="M738.259 0.530465C733.989 0.987761 729.871 1.90235 725.906 2.81694C374.544 70.8016 253.153 365.91 217.315 489.227C209.69 515.446 180.258 528.555 155.857 516.513C87.842 483.282 -48.4939 433.894 -228.75 453.253C-492.577 481.606 -619 724.887 -619 724.887L-597.955 920C-597.955 920 -507.369 638.001 -214.11 606.6C-2.28607 583.888 138.777 724.735 200.693 804.761C225.855 837.229 265.811 854.149 306.528 849.881C355.176 844.699 390.709 802.17 388.269 753.239C362.496 249.909 757.321 177.809 757.321 177.809C806.274 172.474 841.807 128.573 836.469 79.6426C831.132 30.712 787.212 -4.80465 738.259 0.530465Z" fill="url(#paint0_linear_333_884)"/>
<defs>
<linearGradient id="paint0_linear_333_884" x1="-284.689" y1="721.324" x2="929.964" y2="196.69" gradientUnits="userSpaceOnUse">
<stop offset="0.0134869" stop-color="#6B8ED2" stop-opacity="0"/>
<stop offset="0.43" stop-color="#5CBAFF"/>
<stop offset="0.75" stop-color="#E759AE"/>
<stop offset="0.99" stop-color="#F4475C"/>
</linearGradient>
</defs>
</svg>
